<svg width="48" height="32" viewBox="0 0 48 32" fill="none" xmlns="http://www.w3.org/2000/svg">
<path d="M47.2497 11.5175C43.0716 11.5175 39.2779 14.5974 36.7578 17.8847C33.8832 13.3379 29.449 9.19445 24.1838 7.47441V0.0933838L11.6952 7.51848C5.82131 9.11935 0 13.2582 0 19.2549C0 26.6744 8.95753 31.9068 18.7245 31.9068C26.2808 31.9068 32.7699 26.9361 36.7578 20.6261C39.2806 23.9087 43.0715 26.9934 47.2497 26.9934H48V11.5184L47.2497 11.5175ZM22.6823 2.7316V7.06079C20.7944 6.62185 18.7865 6.45863 15.9372 6.74195L22.6823 2.7316ZM1.50056 19.2549C1.50056 15.4397 4.43419 12.4451 7.81238 10.6425C13.2333 15.0974 13.2333 23.4125 7.79175 27.8561C4.407 26.0441 1.50056 23.0504 1.50056 19.2549ZM18.7245 30.4061C15.3201 30.4061 12.0769 29.7721 9.26803 28.5651C14.7377 23.5812 14.7452 14.9304 9.28866 9.93526C12.092 8.73479 15.3285 8.10357 18.7245 8.10357C26.0596 8.10357 32.3002 13.2806 35.8208 19.2313L35.8058 19.2548L35.8208 19.2782C32.2955 25.247 26.054 30.4061 18.7245 30.4061ZM46.4994 25.4532C42.0793 24.9937 38.596 20.6204 37.6094 19.2549C38.5942 17.8883 42.0699 13.516 46.4994 13.0574V25.4532Z" fill="#B79C10"/>
</svg>
